# xmcd
#
# Track frame offsets: 
#        150
#        15147
#        32670
#        46995
#        63985
#        78887
#        92280
#        105020
#        119877
#        139525
#        152047
#
# Disc length: 2243 seconds
#
# Revision: 0
# Processed by: cddbd v1.5.2PL0 Copyright (c) Steve Scherf et al.
# Submitted via: ExactAudioCopy v0.95b4
#
DISCID=7208c10b
DTITLE=James Zackary - James Zackary
DYEAR=1996
DGENRE=Country
TTITLE0=Eighteen Wheels and One Lonely Heart
TTITLE1=Get Back In The Saddle Again
TTITLE2=She Looks Like An Angel
TTITLE3=I Got Over You
TTITLE4=We're Gonna Dance
TTITLE5=Hello Baby
TTITLE6=Shattered Dreams
TTITLE7=Lookin' For Patches
TTITLE8=Oh Daddy
TTITLE9=No Win Situation
TTITLE10=I Got Lost
EXTD=
EXTT0=
EXTT1=
EXTT2=
EXTT3=
EXTT4=
EXTT5=
EXTT6=
EXTT7=
EXTT8=
EXTT9=
EXTT10=
PLAYORDER=
